# xmcd CD database file
#
# Track frame offsets:
#	150
#	12798
#	25925
#	38857
#	52399
#	66282
#	81109
#	94663
#	108603
#	121670
#	133713
#	146566
#	159724
#	172214
#	184313
#	197463
#	210053
#	222643
#	234603
#	246621
#
# Disc length: 3451 seconds
#
# Revision: 3
# Processed by: cddbd v1.5.2PL0 Copyright (c) Steve Scherf et al.
# Submitted via: CDex 1.51
#
DISCID=2b0d7914
DTITLE=Memphis Minnie and Little Son Joe - Me And My Chauffeur  {1935-1946}
DYEAR=1997
DGENRE=General Blues
TTITLE0=Dirty Mother For You
TTITLE1=Down In New Orleans
TTITLE2=He's In The Ring  (Doing The Same Old Thing)
TTITLE3=Hustlin' Woman Blues
TTITLE4=Hoodoo Lady
TTITLE5=If You See My Rooster  [Please Run Him Home]
TTITLE6=Good Morning
TTITLE7=Hot Stuff
TTITLE8=My Baby Don't Want Me No More
TTITLE9=Keep On Eatin'
TTITLE10=Long As I Can See You Smile
TTITLE11=I've Been Treated Wrong
TTITLE12=Has Anyone Seen My Man ¿
TTITLE13=Diggin' My Potatoes
TTITLE14=My Black Buffalo
TTITLE15=It's Hard To Please My Man
TTITLE16=Me And My Chauffeur Blues
TTITLE17=I Am Sailin'
TTITLE18=I'm So Glad
TTITLE19=Hold Me Blues
EXTD=submitted by william hale YEAR: 1997
EXTT0=
EXTT1=
EXTT2=
EXTT3=
EXTT4=
EXTT5=
EXTT6=
EXTT7=
EXTT8=
EXTT9=
EXTT10=
EXTT11=
EXTT12=
EXTT13=
EXTT14=
EXTT15=
EXTT16=
EXTT17=
EXTT18=
EXTT19=
PLAYORDER=
